<svg width="41" height="36" viewBox="0 0 41 36" fill="none" xmlns="http://www.w3.org/2000/svg">
<path d="M36.2648 35.795H3.78886C1.708 35.795 0 33.8617 0 31.5062V4.28886C0 1.93339 1.708 0 3.78886 0H36.2648C38.3457 0 40.0537 1.93339 40.0537 4.28886V31.5062C40.0537 33.8617 38.3457 35.795 36.2648 35.795Z" fill="#F6C859"/>
<path d="M15.4081 31.0186C15.2397 31.0186 15.0713 30.9097 14.9992 30.7327C14.8789 30.474 14.9751 30.1609 15.2036 30.0247C15.8772 29.6299 16.7914 28.9082 17.3206 27.642C17.9942 26.0354 17.8138 24.2926 17.5371 24.1428C17.4649 24.102 17.1883 24.2654 17.0199 24.3607C16.5869 24.6194 15.9735 24.9598 15.2758 24.6874C14.5902 24.4151 14.2534 23.7207 14.0971 23.394C13.0506 21.2155 12.7259 15.5515 13.8324 12.7331C14.2053 11.7936 14.6985 11.249 15.3239 11.0856C15.9614 10.9222 16.4786 11.2217 16.8876 11.4668C17.2244 11.6711 17.4048 11.7527 17.501 11.6847C17.934 11.3851 17.922 9.58789 17.3206 8.15827C16.7914 6.89203 15.8772 6.17041 15.2036 5.77556C14.9751 5.63941 14.8909 5.32625 14.9992 5.06755C15.1195 4.80886 15.3961 4.71356 15.6246 4.83609C16.4185 5.29902 17.5131 6.17041 18.1505 7.70896C18.788 9.22027 19.0887 11.8208 17.9701 12.5833C17.4048 12.9645 16.8756 12.6514 16.4425 12.4063C16.1178 12.2157 15.8171 12.0387 15.5164 12.1204C15.1074 12.2293 14.8308 12.7603 14.6624 13.1824C13.6881 15.6331 13.9648 20.9977 14.8909 22.9174C15.0473 23.2442 15.2397 23.5982 15.5645 23.7207C15.8772 23.8433 16.1659 23.6935 16.5869 23.4484C16.9958 23.217 17.4529 22.9447 17.934 23.217C18.9685 23.7888 18.9083 26.3213 18.1505 28.1185C17.5131 29.6435 16.4185 30.5285 15.6246 30.9914C15.5525 31.005 15.4803 31.0186 15.4081 31.0186Z" fill="#7D662D"/>
<path d="M14.0249 13.6832H5.67735C5.42476 13.6832 5.20825 13.4518 5.20825 13.1522C5.20825 12.8527 5.41273 12.6212 5.67735 12.6212H14.0249C14.2775 12.6212 14.494 12.8527 14.494 13.1522C14.494 13.4518 14.2775 13.6832 14.0249 13.6832Z" fill="#7D662D"/>
<path d="M14.0249 23.1479H5.67735C5.42476 23.1479 5.20825 22.9164 5.20825 22.6169C5.20825 22.3173 5.41273 22.0859 5.67735 22.0859H14.0249C14.2775 22.0859 14.494 22.3173 14.494 22.6169C14.494 22.9164 14.2775 23.1479 14.0249 23.1479Z" fill="#7D662D"/>
<path d="M25.1509 31.0156C25.0787 31.0156 25.0066 31.002 24.9344 30.9611C24.1405 30.4982 23.046 29.6268 22.4085 28.0882C21.6507 26.291 21.5906 23.7585 22.625 23.1867C23.1061 22.928 23.5632 23.1867 23.9721 23.4181C24.3931 23.6632 24.6818 23.813 24.9945 23.6904C25.3433 23.5543 25.5478 23.1322 25.6681 22.8871C26.5943 20.9673 26.8709 15.6165 25.8966 13.1521C25.7282 12.73 25.4396 12.199 25.0426 12.0901C24.79 12.022 24.6337 11.7361 24.6938 11.4638C24.754 11.1778 25.0066 11.0145 25.2471 11.0689C25.8726 11.2323 26.3657 11.7905 26.7386 12.73C27.8452 15.5484 27.5325 21.2124 26.474 23.3909C26.3176 23.7177 25.9808 24.4121 25.2952 24.6844C24.5976 24.9567 23.9842 24.6163 23.5512 24.3576C23.3828 24.2623 23.0941 24.0989 23.0339 24.1397C22.7573 24.2895 22.5769 26.0323 23.2505 27.6389C23.7797 28.9052 24.6938 29.6268 25.3674 30.0216C25.5959 30.1578 25.6801 30.471 25.5719 30.7296C25.4877 30.9066 25.3193 31.0156 25.1509 31.0156Z" fill="#7D662D"/>
<path d="M23.2985 11.5875C23.1061 11.5875 22.9256 11.4513 22.8535 11.2335C21.8551 7.85685 24.1886 5.25628 24.9344 4.82059C25.1629 4.68443 25.4395 4.79338 25.5598 5.05207C25.6801 5.31076 25.5839 5.6239 25.3553 5.76006C25.0185 5.95068 22.8775 8.03384 23.7315 10.9067C23.8157 11.179 23.6834 11.4786 23.4429 11.5739C23.3948 11.5739 23.3466 11.5875 23.2985 11.5875Z" fill="#7D662D"/>
<path d="M34.8937 13.6832H26.5461C26.2935 13.6832 26.077 13.4518 26.077 13.1522C26.077 12.8527 26.2815 12.6212 26.5461 12.6212H34.8937C35.1462 12.6212 35.3627 12.8527 35.3627 13.1522C35.3627 13.4518 35.1583 13.6832 34.8937 13.6832Z" fill="#7D662D"/>
<path d="M34.8937 23.1479H26.5461C26.2935 23.1479 26.077 22.9164 26.077 22.6169C26.077 22.3173 26.2815 22.0859 26.5461 22.0859H34.8937C35.1462 22.0859 35.3627 22.3173 35.3627 22.6169C35.3627 22.9164 35.1583 23.1479 34.8937 23.1479Z" fill="#7D662D"/>
</svg>
