<svg width="56" height="18" viewBox="0 0 56 18" fill="none" xmlns="http://www.w3.org/2000/svg">
<path d="M51.6963 1.1867H48.2341C47.1561 1.1867 46.3579 1.48731 45.8811 2.54462L39.2262 17.6373H43.9323C43.9323 17.6373 44.7097 15.6056 44.8756 15.1702H50.6183C50.753 15.7507 51.1573 17.6373 51.1573 17.6373H55.3244L51.6963 1.1867ZM46.1713 11.8013C46.5445 10.858 47.9439 7.19889 47.9439 7.19889C47.9439 7.18852 48.3274 6.23487 48.5451 5.63365L48.8457 7.05377C48.8457 7.05377 49.7061 10.9721 49.8823 11.8117H46.1713V11.8013Z" fill="white"/>
<path d="M33.2451 5.74764C33.2347 6.52507 34.1988 7.03299 35.7744 7.7897C38.3555 8.97141 39.5579 10.3812 39.5372 12.2678C39.5061 15.6781 36.4482 17.886 31.7213 17.886C29.7103 17.8653 27.7719 17.461 26.725 17.005L27.3573 13.3147L27.9378 13.5842C29.3994 14.1958 30.3634 14.4446 32.1567 14.4446C33.4421 14.4446 34.8207 13.9367 34.8311 12.8379C34.8414 12.1123 34.2506 11.594 32.5091 10.7854C30.7988 9.99764 28.5494 8.68117 28.5701 6.31775C28.5908 3.12507 31.7213 0.886047 36.1476 0.886047C37.889 0.886047 39.2884 1.24885 40.1695 1.58056L39.5579 5.14641L39.1537 4.95983C38.3244 4.62812 37.2567 4.30678 35.7951 4.32751C34.064 4.32751 33.2451 5.06349 33.2451 5.74764Z" fill="white"/>
<path d="M26.725 1.17632L23.9158 17.6269H19.4378L22.2366 1.17632H26.725Z" fill="white"/>
<path d="M10.6165 9.64521C9.12378 5.84094 5.54756 2.67936 0.126221 1.3629L0.188413 1.03119H7.14389C8.08719 1.06229 8.84388 1.3629 9.10302 2.36839L10.6165 9.64521Z" fill="white"/>
<path d="M20.4329 1.1867L13.3634 17.6166H8.6262L4.61462 3.90255C7.49633 5.74767 9.95303 8.68121 10.8238 10.7233L11.3006 12.4233L15.6957 1.19707H20.4329V1.1867Z" fill="white"/>
</svg>
